<svg id="Layer_1" data-name="Layer 1" xmlns="http://www.w3.org/2000/svg" viewBox="0 0 172 31.97"><defs><style>.cls-1{fill:#fff;}</style></defs><title>Safeway_W</title><path class="cls-1" d="M9.09,14.48l-1.63-.94c-2-1.12-3-2-3-3.33s1.2-2.42,3.2-2.42a11.85,11.85,0,0,1,5.21,1.73l.28.15V5.8h0A12.85,12.85,0,0,0,7.36,4.41c-4.18,0-7,2.41-7,6,0,3,1.93,4.69,4.83,6.37l1.7,1c2.42,1.39,3.26,2.42,3.26,3.93,0,1.75-1.59,3-3.87,3a11.77,11.77,0,0,1-6.2-2.23L0,22.38v4.45L.31,27a14.52,14.52,0,0,0,6.17,1.33c4.74,0,7.93-2.7,7.93-6.73,0-2.91-1.49-4.91-5.31-7.13" transform="translate(0 -0.05)"/><polygon class="cls-1" points="38.09 4.89 38.09 27.76 42.2 27.76 42.2 17.72 51.25 17.72 51.25 14.15 42.2 14.15 42.2 8.51 51.72 8.51 51.72 4.89 38.09 4.89"/><polygon class="cls-1" points="58.4 17.57 67.1 17.57 67.1 13.99 58.4 13.99 58.4 8.51 67.84 8.51 67.84 4.89 54.37 4.89 54.37 27.76 68 27.76 68 24.1 58.4 24.1 58.4 17.57"/><path class="cls-1" d="M132.08,4.9h-4.92L122,13a5.53,5.53,0,0,0-.49.87h-.06a6,6,0,0,0-.5-.86c-3.25-5-5.26-8.16-5.26-8.16h-4.92s8.57,12.44,8.58,12.48V27.81h4.16V17.39c.49-.65,8.57-12.49,8.57-12.49" transform="translate(0 -0.05)"/><path class="cls-1" d="M105.38,4.21H105L94.12,27.81h4.43l1.72-4h9.83l1.71,4h4.43L105.38,4.21m-3.7,16.3s1.93-4.58,3.16-7.41a6.32,6.32,0,0,0,.33-1.12h0a9.63,9.63,0,0,0,.31,1.12l3.16,7.41Z" transform="translate(0 -0.05)"/><path class="cls-1" d="M83.73,15a6.72,6.72,0,0,0,.32-1.14h.05A6.54,6.54,0,0,0,84.43,15c.76,1.92,5.51,13.62,5.51,13.62h.38L98.61,4.9H94.27L90.18,17.64a8.66,8.66,0,0,0-.3,1.12h0a8.25,8.25,0,0,0-.33-1.12L84.3,4.06h-.4L78.67,17.65a8.2,8.2,0,0,0-.32,1.16h0A6.81,6.81,0,0,0,78,17.69C77,14.48,73.88,4.9,73.88,4.9H69.56l8.28,23.7h.39L83.74,15" transform="translate(0 -0.05)"/><path class="cls-1" d="M25.75,4.21h-.4L14.5,27.81h4.42l1.72-4h9.82l1.73,4h4.43L25.75,4.21m-3.69,16.3S24,15.9,25.21,13.1A6.78,6.78,0,0,0,25.54,12h0a8.26,8.26,0,0,0,.32,1.12L29,20.51Z" transform="translate(0 -0.05)"/><path class="cls-1" d="M155.24,26.2c0-6.34-9.5-6.93-9.5-15.92,0-6.48,5.09-9.7,10.14-10.23h-1.63c-1.23,0-1.83,0-2.86.09-9.46.47-14.5,5.48-14.81,13.19,0,.5-.08,1.35-.08,2.73s.05,2.21.08,2.7c.31,7.5,5.09,12.45,14.06,13.14a5.33,5.33,0,0,0,4.6-5.66" transform="translate(0 -0.05)"/><path class="cls-1" d="M171.93,13.28C171.63,6,167.09,1.09,158.57.22a5.3,5.3,0,0,0-4.48,5.68c0,6.33,9.49,6.92,9.49,15.92,0,5.61-4.28,9.73-10.73,10.2h1.41a28.4,28.4,0,0,0,2.86-.09c9.45-.46,14.49-5.46,14.81-13.18,0-.5.07-1.36.07-2.71s-.05-2.23-.07-2.73" transform="translate(0 -0.05)"/><path class="cls-1" d="M169.39,30.74A1.27,1.27,0,1,1,170.67,32a1.27,1.27,0,0,1-1.28-1.26h0m2.39,0a1.13,1.13,0,1,0,0,.06h0m-.49.7h-.21l-.41-.65h-.32v.65h-.17V30h.62a.69.69,0,0,1,.35.07.35.35,0,0,1,.16.31c0,.28-.2.38-.45.39Zm-.67-.79c.2,0,.51,0,.51-.25s-.19-.25-.37-.25h-.41v.5Z" transform="translate(0 -0.05)"/></svg>